<svg width="24" height="24" viewBox="0 0 24 24" fill="none" xmlns="http://www.w3.org/2000/svg">
<path opacity="0.4" d="M11.5 11.4905V11.9905C11.7762 11.9905 12 11.7666 12 11.4905H11.5ZM11.5 12.4905H12C12 12.2143 11.7762 11.9905 11.5 11.9905V12.4905ZM12.5 12.4905V11.9905C12.2239 11.9905 12 12.2143 12 12.4905H12.5ZM12.5 11.4905H12C12 11.7666 12.2239 11.9905 12.5 11.9905V11.4905ZM12 8.32731H13C13 7.77502 12.5523 7.32731 12 7.32731V8.32731ZM12 8.32731V7.32731C11.4478 7.32731 11 7.77502 11 8.32731H12ZM12 11.4905V8.32731H11V11.4905H12ZM8.33337 11.9905H11.5V10.9905H8.33337V11.9905ZM8.33337 11.9905V10.9905C7.78109 10.9905 7.33337 11.4382 7.33337 11.9905H8.33337ZM8.33337 11.9905H7.33337C7.33337 12.5428 7.78109 12.9905 8.33337 12.9905V11.9905ZM11.5 11.9905H8.33337V12.9905H11.5V11.9905ZM12 15.6537V12.4905H11V15.6537H12ZM12 15.6537H11C11 16.2059 11.4478 16.6537 12 16.6537V15.6537ZM12 15.6537V16.6537C12.5523 16.6537 13 16.2059 13 15.6537H12ZM12 12.4905V15.6537H13V12.4905H12ZM15.6667 11.9905H12.5V12.9905H15.6667V11.9905ZM15.6667 11.9905V12.9905C16.219 12.9905 16.6667 12.5428 16.6667 11.9905H15.6667ZM15.6667 11.9905H16.6667C16.6667 11.4382 16.219 10.9905 15.6667 10.9905V11.9905ZM12.5 11.9905H15.6667V10.9905H12.5V11.9905ZM12 8.32731V11.4905H13V8.32731H12Z" fill="#11142D"/>
<path fill-rule="evenodd" clip-rule="evenodd" d="M16.6857 2H7.31429C4.04762 2 2 4.31208 2 7.58516V16.4148C2 19.6879 4.0381 22 7.31429 22H16.6857C19.9619 22 22 19.6879 22 16.4148V7.58516C22 4.31208 19.9619 2 16.6857 2Z" stroke="#808191" stroke-width="1.5" stroke-linecap="round" stroke-linejoin="round"/>
</svg>
