<svg width="25" height="24" viewBox="0 0 25 24" fill="none" xmlns="http://www.w3.org/2000/svg">
<path d="M12.3869 11.6155V12.3655C12.8011 12.3655 13.1369 12.0297 13.1369 11.6155H12.3869ZM12.3869 12.3655H13.1369C13.1369 11.9513 12.8011 11.6155 12.3869 11.6155V12.3655ZM13.1369 12.3655V11.6155C12.7227 11.6155 12.3869 11.9513 12.3869 12.3655H13.1369ZM13.1369 11.6155H12.3869C12.3869 12.0297 12.7227 12.3655 13.1369 12.3655V11.6155ZM12.7619 8.7023C12.5548 8.7023 12.3869 8.53441 12.3869 8.3273H13.8869C13.8869 7.70598 13.3832 7.2023 12.7619 7.2023V8.7023ZM13.1369 8.3273C13.1369 8.53441 12.969 8.7023 12.7619 8.7023V7.2023C12.1406 7.2023 11.6369 7.70598 11.6369 8.3273H13.1369ZM13.1369 11.6155V8.3273H11.6369V11.6155H13.1369ZM9.09524 12.3655H12.3869V10.8655H9.09524V12.3655ZM9.47024 11.9905C9.47024 12.1976 9.30234 12.3655 9.09524 12.3655V10.8655C8.47392 10.8655 7.97024 11.3692 7.97024 11.9905H9.47024ZM9.09524 11.6155C9.30234 11.6155 9.47024 11.7834 9.47024 11.9905H7.97024C7.97024 12.6118 8.47392 13.1155 9.09524 13.1155V11.6155ZM12.3869 11.6155H9.09524V13.1155H12.3869V11.6155ZM13.1369 15.6537V12.3655H11.6369V15.6537H13.1369ZM12.7619 15.2787C12.969 15.2787 13.1369 15.4466 13.1369 15.6537H11.6369C11.6369 16.275 12.1406 16.7787 12.7619 16.7787V15.2787ZM12.3869 15.6537C12.3869 15.4466 12.5548 15.2787 12.7619 15.2787V16.7787C13.3832 16.7787 13.8869 16.275 13.8869 15.6537H12.3869ZM12.3869 12.3655V15.6537H13.8869V12.3655H12.3869ZM16.4286 11.6155H13.1369V13.1155H16.4286V11.6155ZM16.0536 11.9905C16.0536 11.7834 16.2215 11.6155 16.4286 11.6155V13.1155C17.0499 13.1155 17.5536 12.6118 17.5536 11.9905H16.0536ZM16.4286 12.3655C16.2215 12.3655 16.0536 12.1976 16.0536 11.9905H17.5536C17.5536 11.3692 17.0499 10.8655 16.4286 10.8655V12.3655ZM13.1369 12.3655H16.4286V10.8655H13.1369V12.3655ZM12.3869 8.3273V11.6155H13.8869V8.3273H12.3869Z" fill="#FFFFFF"/>
<path fill-rule="evenodd" clip-rule="evenodd" d="M17.4476 2H8.07619C4.80952 2 2.7619 4.31208 2.7619 7.58516V16.4148C2.7619 19.6879 4.8 22 8.07619 22H17.4476C20.7238 22 22.7619 19.6879 22.7619 16.4148V7.58516C22.7619 4.31208 20.7238 2 17.4476 2Z" stroke="#FFFFFF" stroke-width="1.5" stroke-linecap="round" stroke-linejoin="round"/>
</svg>
