<svg width="78" height="26" viewBox="0 0 78 26" fill="none" xmlns="http://www.w3.org/2000/svg">
<rect width="78" height="26" rx="8" fill="#FF754C"/>
<path d="M39.0065 18H44.7171V16.772H40.433V8.54545H39.0065V18ZM46.2336 18H47.6139V10.9091H46.2336V18ZM46.9307 9.81499C47.4062 9.81499 47.8032 9.44567 47.8032 8.99325C47.8032 8.54084 47.4062 8.1669 46.9307 8.1669C46.4506 8.1669 46.0581 8.54084 46.0581 8.99325C46.0581 9.44567 46.4506 9.81499 46.9307 9.81499ZM55.5369 10.9091H54.055L52.2638 16.3658H52.19L50.3942 10.9091H48.9123L51.4883 18H52.9656L55.5369 10.9091ZM59.6364 18.1431C61.1829 18.1431 62.277 17.3814 62.5909 16.2273L61.2844 15.9918C61.0352 16.6612 60.435 17.0028 59.6502 17.0028C58.4684 17.0028 57.6744 16.2365 57.6374 14.87H62.6786V14.3807C62.6786 11.8185 61.146 10.8168 59.5394 10.8168C57.5636 10.8168 56.2617 12.3217 56.2617 14.5007C56.2617 16.7028 57.5451 18.1431 59.6364 18.1431ZM57.642 13.8359C57.6974 12.8295 58.4268 11.957 59.5487 11.957C60.6197 11.957 61.3214 12.7511 61.326 13.8359H57.642Z" fill="white"/>
<path d="M21.4526 14.0497C23.6001 11.904 27.0801 11.904 29.2276 14.0497" stroke="white" stroke-width="2" stroke-linecap="round" stroke-linejoin="round"/>
<circle cx="25.3415" cy="17" r="1" stroke="white" stroke-width="2" stroke-linecap="round" stroke-linejoin="round"/>
<path d="M18.6236 11.9045C22.3333 8.19592 28.3468 8.19592 32.0566 11.9045" stroke="white" stroke-width="2" stroke-linecap="round" stroke-linejoin="round"/>
</svg>
